<?xml version="1.0" standalone="no"?>
<!DOCTYPE svg PUBLIC "-//W3C//DTD SVG 20010904//EN"
 "http://www.w3.org/TR/2001/REC-SVG-20010904/DTD/svg10.dtd">
<svg version="1.0" xmlns="http://www.w3.org/2000/svg"
 width="32px" height="32px" viewBox="0 0 811.000000 810.000000"
 preserveAspectRatio="xMidYMid meet">

<g transform="translate(0.000000,810.000000) scale(0.100000,-0.100000)"
fill="mone" stroke="none">
<path d="M694 7936 c-261 -74 -464 -280 -533 -542 l-21 -81 3 -1619 2 -1619
22 -60 c95 -269 277 -443 538 -517 l80 -23 1323 -3 1322 -3 0 -1313 c0 -1124
2 -1326 15 -1393 27 -143 88 -263 188 -369 109 -117 220 -184 372 -223 78 -21
92 -21 1690 -21 l1611 0 85 21 c278 71 473 267 540 544 18 77 19 135 19 1691
0 1597 0 1611 -21 1689 -39 152 -106 263 -223 372 -106 100 -226 161 -369 188
-67 13 -268 15 -1378 15 l-1299 0 0 1299 c0 1110 -2 1311 -15 1378 -28 146
-88 264 -193 375 -108 114 -215 177 -367 217 -78 21 -91 21 -1694 20 l-1616 0
-81 -23z m3349 -338 c64 -23 149 -81 182 -124 14 -19 38 -60 53 -92 l27 -57 3
-1327 2 -1328 -92 0 c-324 0 -572 -151 -713 -435 -53 -106 -75 -211 -75 -353
l0 -92 -1327 2 -1328 3 -57 27 c-32 15 -73 39 -92 53 -56 42 -107 129 -128
214 -17 72 -18 165 -18 1611 0 1671 -1 1614 56 1721 32 58 94 119 154 149 98
50 57 49 1735 47 1445 -2 1574 -4 1618 -19z m3321 -3339 c78 -35 160 -108 192
-171 55 -109 54 -57 54 -1711 0 -1666 1 -1625 -56 -1723 -54 -92 -145 -158
-249 -180 -81 -18 -3134 -20 -3217 -3 -120 25 -223 106 -277 219 l-26 55 -3
1399 c-2 1184 0 1402 12 1420 10 16 15 74 18 221 4 183 7 205 29 259 47 117
168 215 289 236 25 4 749 7 1610 6 l1565 -1 59 -26z"/>
<path d="M1426 6513 l-198 -3 6 -33 c31 -169 42 -586 26 -1060 -9 -292 -10
-391 -1 -400 18 -18 695 -20 738 -2 40 17 57 55 49 109 -5 30 -28 88 -41 104
-1 1 -19 -5 -41 -14 -70 -29 -184 -43 -358 -44 l-169 0 6 122 c4 66 7 190 7
275 l0 153 245 0 c160 0 253 4 269 11 33 16 50 59 42 111 -10 64 -14 68 -66
57 -25 -5 -143 -12 -263 -16 l-217 -6 2 234 3 234 165 3 c172 3 301 -8 370
-33 l41 -15 19 43 c32 72 35 118 10 150 l-21 27 -212 -2 c-117 -2 -301 -4
-411 -5z"/>
<path d="M3520 6511 c-14 -5 -40 -15 -57 -25 l-32 -16 20 -48 c12 -26 30 -87
41 -137 19 -81 21 -133 25 -525 l3 -435 -41 45 c-111 120 -528 594 -735 836
-230 268 -268 304 -324 304 -33 0 -83 -27 -120 -65 l-33 -34 30 -25 c69 -58
93 -182 93 -476 0 -402 -28 -684 -80 -805 -11 -26 -18 -51 -15 -55 3 -5 31
-18 63 -30 64 -25 143 -23 169 3 28 28 32 100 22 442 -6 187 -9 416 -7 509 l3
168 120 -133 c67 -74 213 -240 325 -369 242 -279 348 -397 487 -544 l104 -110
55 30 56 29 -6 50 c-16 130 -18 496 -6 884 13 456 11 495 -33 526 -22 16 -84
19 -127 6z"/>
<path d="M4915 3230 c-66 -4 -154 -8 -197 -9 l-76 -1 14 -52 c32 -121 37 -254
30 -779 -4 -284 -4 -523 0 -532 15 -40 129 -41 204 -2 l27 14 -18 53 c-17 51
-39 263 -39 375 l0 53 73 0 c134 0 207 -55 451 -339 157 -182 166 -191 214
-214 32 -16 35 -15 74 9 28 18 46 41 63 77 l23 52 -47 25 c-65 34 -65 35 -246
216 -88 88 -182 177 -208 197 l-48 36 49 25 c168 85 265 239 265 419 0 43 -5
88 -10 100 -6 12 -17 39 -26 59 -22 51 -82 115 -144 155 -91 58 -207 75 -428
63z m241 -155 c66 -19 137 -81 159 -140 24 -62 17 -204 -13 -261 -46 -89 -105
-138 -209 -173 -70 -23 -217 -38 -227 -23 -7 12 10 591 18 599 10 11 114 21
166 17 30 -3 78 -12 106 -19z"/>
<path d="M6016 3219 c-21 -5 -53 -16 -71 -25 -32 -15 -33 -16 -18 -45 36 -72
44 -181 41 -554 -3 -401 1 -442 57 -562 40 -85 97 -150 157 -180 47 -24 149
-53 185 -53 12 0 43 -5 67 -12 33 -9 57 -9 98 0 29 6 82 16 118 22 145 25 262
110 333 242 66 123 93 237 119 498 17 176 14 470 -6 530 -2 8 -7 32 -11 52 -3
21 -16 50 -29 65 -32 36 -96 37 -159 0 l-45 -26 24 -47 c13 -26 24 -55 24 -64
0 -9 4 -20 9 -26 30 -31 50 -412 32 -597 -12 -124 -44 -240 -86 -313 -31 -53
-98 -114 -160 -144 -46 -23 -62 -25 -185 -25 -132 0 -136 1 -190 31 -68 38
-123 108 -144 184 -33 116 -38 214 -30 515 16 516 15 518 -44 534 -20 6 -39
10 -42 10 -3 -1 -22 -5 -44 -10z"/>
<path d="M5322 7944 c-119 -61 -119 -250 1 -304 26 -12 65 -20 102 -20 110 0
288 -20 419 -46 735 -147 1353 -671 1621 -1374 75 -197 116 -385 138 -632 l5
-48 -290 0 c-320 0 -360 -5 -406 -53 -94 -98 -46 -263 83 -285 28 -5 229 -8
447 -7 l397 2 39 25 c69 46 76 73 69 292 -19 648 -276 1251 -731 1710 -460
465 -1064 732 -1701 752 -138 4 -165 3 -193 -12z"/>
<path d="M269 2930 c-49 -8 -93 -42 -114 -87 -16 -32 -17 -59 -12 -227 18
-607 235 -1153 643 -1616 458 -519 1142 -839 1804 -844 158 -1 166 0 198 22
45 33 66 77 66 142 1 71 -25 118 -81 146 -32 16 -68 22 -171 27 -338 17 -611
87 -893 227 -464 231 -825 606 -1037 1077 -89 198 -163 477 -177 663 -3 47 -8
95 -11 107 l-4 22 297 3 c279 3 300 4 333 24 56 33 80 77 80 149 0 72 -24 116
-79 149 -33 19 -54 20 -420 21 -212 0 -402 -2 -422 -5z"/>
</g>
</svg>
